<?xml version="1.0" encoding="iso-8859-1"?>
<!-- Uploaded to: SVG Repo, www.svgrepo.com, Generator: SVG Repo Mixer Tools -->
<svg fill="#000000" height="800px" width="800px" version="1.1" id="Layer_1" xmlns="http://www.w3.org/2000/svg" xmlns:xlink="http://www.w3.org/1999/xlink" 
	 viewBox="0 0 512 512" xml:space="preserve">
<g>
	<g>
		<path d="M398.77,74.17H41.076C18.426,74.17,0,92.598,0,115.246v211.188c0,22.65,18.426,41.076,41.076,41.076H398.77
			c22.65,0,41.076-18.426,41.076-41.076V115.246C439.846,92.597,421.419,74.17,398.77,74.17z M421.939,326.434
			c0,12.776-10.394,23.169-23.169,23.169H41.076c-12.776,0-23.169-10.393-23.169-23.169V221.003h404.032V326.434z M421.939,136.68
			H138.43c-4.945,0-8.953,4.009-8.953,8.953c0,4.945,4.009,8.953,8.953,8.953h283.509v48.51H17.907v-48.51h90.678
			c4.945,0,8.953-4.009,8.953-8.953s-4.009-8.953-8.953-8.953H17.907v-21.433c0-12.775,10.393-23.169,23.169-23.169H398.77
			c12.776,0,23.169,10.393,23.169,23.169V136.68z"/>
	</g>
</g>
<g>
	<g>
		<path d="M503.047,358.281c-4.945,0-8.953,4.009-8.953,8.953v26.608c0,14.38-11.699,26.08-26.08,26.08H116.158
			c-14.388,0-26.093-11.699-26.093-26.08v-8.691c0-4.945-4.009-8.953-8.953-8.953c-4.945,0-8.953,4.009-8.953,8.953v8.691
			c0,24.254,19.738,43.987,44,43.987h351.855c24.254,0,43.987-19.732,43.987-43.987v-26.608
			C512,362.29,507.991,358.281,503.047,358.281z"/>
	</g>
</g>
<g>
	<g>
		<path d="M468.013,144.49h-10.527c-4.945,0-8.953,4.009-8.953,8.953s4.009,8.953,8.953,8.953h10.527
			c14.38,0,26.08,11.705,26.08,26.093V337.39c0,4.945,4.009,8.953,8.953,8.953c4.945,0,8.953-4.009,8.953-8.953V188.489
			C512,164.228,492.268,144.49,468.013,144.49z"/>
	</g>
</g>
<g>
	<g>
		<path d="M184.762,244.119H51.929c-4.945,0-8.953,4.009-8.953,8.953c0,4.945,4.009,8.953,8.953,8.953h132.833
			c4.945,0,8.953-4.009,8.953-8.953C193.716,248.128,189.707,244.119,184.762,244.119z"/>
	</g>
</g>
<g>
	<g>
		<path d="M128.112,281.234H51.929c-4.945,0-8.953,4.009-8.953,8.953s4.009,8.953,8.953,8.953h76.183
			c4.945,0,8.953-4.009,8.953-8.953S133.058,281.234,128.112,281.234z"/>
	</g>
</g>
</svg>